<svg id="visual" viewBox="0 0 900 600" width="900" height="600" xmlns="http://www.w3.org/2000/svg" xmlns:xlink="http://www.w3.org/1999/xlink" version="1.1"><g stroke-width="1" stroke-linejoin="bevel"><path d="M459 253L481 222L365.5 183Z" fill="#333333" stroke="#333333"></path><path d="M365.5 183L346.5 260L459 253Z" fill="#adadad" stroke="#adadad"></path><path d="M462 70L313.5 142L365.5 183Z" fill="#161616" stroke="#161616"></path><path d="M365.5 183L313.5 142L346.5 260Z" fill="#333333" stroke="#333333"></path><path d="M481 222L462 70L365.5 183Z" fill="#333333" stroke="#333333"></path><path d="M593.5 255L557.5 163L481 222Z" fill="#161616" stroke="#161616"></path><path d="M481 222L557.5 163L462 70Z" fill="#888888" stroke="#888888"></path><path d="M557.5 163L572.5 134L462 70Z" fill="#767676" stroke="#767676"></path><path d="M313.5 142L257 269L346.5 260Z" fill="#242424" stroke="#242424"></path><path d="M530.5 408L593.5 255L459 253Z" fill="#adadad" stroke="#adadad"></path><path d="M449 428L459 253L346.5 260Z" fill="#888888" stroke="#888888"></path><path d="M459 253L593.5 255L481 222Z" fill="#767676" stroke="#767676"></path><path d="M557.5 163L684 190L572.5 134Z" fill="#535353" stroke="#535353"></path><path d="M567.5 0L454 0L462 70Z" fill="#242424" stroke="#242424"></path><path d="M462 70L344.5 0L313.5 142Z" fill="#000000" stroke="#000000"></path><path d="M250 59L209 174L313.5 142Z" fill="#434343" stroke="#434343"></path><path d="M313.5 142L209 174L257 269Z" fill="#888888" stroke="#888888"></path><path d="M454 0L344.5 0L462 70Z" fill="#333333" stroke="#333333"></path><path d="M344.5 0L250 59L313.5 142Z" fill="#242424" stroke="#242424"></path><path d="M309.5 425L449 428L346.5 260Z" fill="#adadad" stroke="#adadad"></path><path d="M449 428L530.5 408L459 253Z" fill="#646464" stroke="#646464"></path><path d="M233 436L309.5 425L257 269Z" fill="#242424" stroke="#242424"></path><path d="M257 269L309.5 425L346.5 260Z" fill="#535353" stroke="#535353"></path><path d="M572.5 134L567.5 0L462 70Z" fill="#767676" stroke="#767676"></path><path d="M651 0L567.5 0L572.5 134Z" fill="#434343" stroke="#434343"></path><path d="M309.5 425L425 458L449 428Z" fill="#434343" stroke="#434343"></path><path d="M449 428L550.5 466L530.5 408Z" fill="#242424" stroke="#242424"></path><path d="M666 301L684 190L593.5 255Z" fill="#535353" stroke="#535353"></path><path d="M593.5 255L684 190L557.5 163Z" fill="#333333" stroke="#333333"></path><path d="M530.5 408L666 301L593.5 255Z" fill="#333333" stroke="#333333"></path><path d="M137.5 117L160.5 199L209 174Z" fill="#adadad" stroke="#adadad"></path><path d="M209 174L160.5 199L257 269Z" fill="#767676" stroke="#767676"></path><path d="M344.5 0L250 0L250 59Z" fill="#646464" stroke="#646464"></path><path d="M250 59L137.5 117L209 174Z" fill="#535353" stroke="#535353"></path><path d="M684 190L681 112L572.5 134Z" fill="#161616" stroke="#161616"></path><path d="M425 458L550.5 466L449 428Z" fill="#434343" stroke="#434343"></path><path d="M530.5 408L681 355L666 301Z" fill="#161616" stroke="#161616"></path><path d="M250 0L137.5 117L250 59Z" fill="#888888" stroke="#888888"></path><path d="M550.5 466L681 355L530.5 408Z" fill="#9a9a9a" stroke="#9a9a9a"></path><path d="M794.5 197L774.5 118L684 190Z" fill="#333333" stroke="#333333"></path><path d="M132.5 308L233 436L257 269Z" fill="#9a9a9a" stroke="#9a9a9a"></path><path d="M309.5 425L308.5 512L425 458Z" fill="#767676" stroke="#767676"></path><path d="M681 112L651 0L572.5 134Z" fill="#161616" stroke="#161616"></path><path d="M0 246L132.5 308L160.5 199Z" fill="#9a9a9a" stroke="#9a9a9a"></path><path d="M160.5 199L132.5 308L257 269Z" fill="#9a9a9a" stroke="#9a9a9a"></path><path d="M233 436L308.5 512L309.5 425Z" fill="#000000" stroke="#000000"></path><path d="M425 458L483 600L550.5 466Z" fill="#646464" stroke="#646464"></path><path d="M0 322L122.5 353L132.5 308Z" fill="#161616" stroke="#161616"></path><path d="M132.5 308L122.5 353L233 436Z" fill="#646464" stroke="#646464"></path><path d="M233 436L272 541L308.5 512Z" fill="#adadad" stroke="#adadad"></path><path d="M684 190L774.5 118L681 112Z" fill="#535353" stroke="#535353"></path><path d="M681 112L807.5 0L651 0Z" fill="#333333" stroke="#333333"></path><path d="M794.5 197L684 190L666 301Z" fill="#646464" stroke="#646464"></path><path d="M143.5 546L272 541L233 436Z" fill="#535353" stroke="#535353"></path><path d="M308.5 512L384.5 600L425 458Z" fill="#646464" stroke="#646464"></path><path d="M812.5 293L794.5 197L666 301Z" fill="#535353" stroke="#535353"></path><path d="M646 600L682 477L550.5 466Z" fill="#888888" stroke="#888888"></path><path d="M550.5 466L682 477L681 355Z" fill="#adadad" stroke="#adadad"></path><path d="M681 355L812.5 293L666 301Z" fill="#434343" stroke="#434343"></path><path d="M272 541L384.5 600L308.5 512Z" fill="#888888" stroke="#888888"></path><path d="M812.5 396L812.5 293L681 355Z" fill="#535353" stroke="#535353"></path><path d="M384.5 600L483 600L425 458Z" fill="#9a9a9a" stroke="#9a9a9a"></path><path d="M250 0L69.5 0L137.5 117Z" fill="#888888" stroke="#888888"></path><path d="M137.5 117L0 246L160.5 199Z" fill="#adadad" stroke="#adadad"></path><path d="M483 600L559.5 600L550.5 466Z" fill="#333333" stroke="#333333"></path><path d="M0 57L0 246L137.5 117Z" fill="#434343" stroke="#434343"></path><path d="M122.5 353L143.5 546L233 436Z" fill="#9a9a9a" stroke="#9a9a9a"></path><path d="M682 477L812.5 396L681 355Z" fill="#646464" stroke="#646464"></path><path d="M823.5 526L812.5 396L682 477Z" fill="#767676" stroke="#767676"></path><path d="M900 184L774.5 118L794.5 197Z" fill="#646464" stroke="#646464"></path><path d="M900 87L807.5 0L774.5 118Z" fill="#333333" stroke="#333333"></path><path d="M774.5 118L807.5 0L681 112Z" fill="#9a9a9a" stroke="#9a9a9a"></path><path d="M0 246L0 322L132.5 308Z" fill="#434343" stroke="#434343"></path><path d="M272 541L207 600L384.5 600Z" fill="#adadad" stroke="#adadad"></path><path d="M0 451L143.5 546L122.5 353Z" fill="#535353" stroke="#535353"></path><path d="M69.5 0L0 57L137.5 117Z" fill="#9a9a9a" stroke="#9a9a9a"></path><path d="M143.5 546L207 600L272 541Z" fill="#000000" stroke="#000000"></path><path d="M559.5 600L646 600L550.5 466Z" fill="#adadad" stroke="#adadad"></path><path d="M69.5 0L0 0L0 57Z" fill="#333333" stroke="#333333"></path><path d="M812.5 293L900 184L794.5 197Z" fill="#161616" stroke="#161616"></path><path d="M900 313L900 184L812.5 293Z" fill="#000000" stroke="#000000"></path><path d="M0 322L0 439L122.5 353Z" fill="#535353" stroke="#535353"></path><path d="M143.5 546L105.5 600L207 600Z" fill="#434343" stroke="#434343"></path><path d="M900 373L812.5 293L812.5 396Z" fill="#333333" stroke="#333333"></path><path d="M900 373L900 313L812.5 293Z" fill="#161616" stroke="#161616"></path><path d="M0 439L0 451L122.5 353Z" fill="#646464" stroke="#646464"></path><path d="M900 184L900 87L774.5 118Z" fill="#9a9a9a" stroke="#9a9a9a"></path><path d="M900 532L900 373L812.5 396Z" fill="#161616" stroke="#161616"></path><path d="M0 451L105.5 600L143.5 546Z" fill="#161616" stroke="#161616"></path><path d="M796.5 600L823.5 526L682 477Z" fill="#535353" stroke="#535353"></path><path d="M900 87L900 0L807.5 0Z" fill="#888888" stroke="#888888"></path><path d="M646 600L796.5 600L682 477Z" fill="#242424" stroke="#242424"></path><path d="M823.5 526L900 532L812.5 396Z" fill="#888888" stroke="#888888"></path><path d="M900 600L900 532L823.5 526Z" fill="#434343" stroke="#434343"></path><path d="M0 451L0 600L105.5 600Z" fill="#535353" stroke="#535353"></path><path d="M796.5 600L900 600L823.5 526Z" fill="#161616" stroke="#161616"></path></g></svg>